<svg xmlns="http://www.w3.org/2000/svg" xmlns:xlink="http://www.w3.org/1999/xlink" xmlns:svgjs="http://svgjs.com/svgjs" version="1.1" width="1492.6492309570312" height="921.7874603271484"><rect width="1492.6492309570312" height="921.7874603271484" fill="#0D0D0D"></rect><g transform="scale(5) translate(30, 30)"> <defs id="SvgjsDefs4601"></defs><g xmlns:name="main_text" id="SvgjsG4602" rel="mainfill" name="main_text" transform="translate(-3.700000047683716,-139.56250610351563)" fill="#ffffff" style="fill: #ffffff"><path d="M19.51 186.05L5.99 186.05C4.73 186.05 3.70 187.08 3.70 188.34L3.70 237.71C3.70 238.97 4.73 240 5.99 240L6.21 240C7.46 240 8.50 238.97 8.50 237.71L8.50 220.34C8.50 219.68 8.72 219.53 9.39 219.53L19.51 219.53C29.78 219.53 38.14 212.80 38.14 202.53C38.14 192.26 29.78 186.05 19.51 186.05ZM19.51 214.72L9.31 214.72C8.65 214.72 8.50 214.50 8.50 213.84L8.50 191.59C8.50 191.00 8.72 190.78 9.39 190.78L19.51 190.78C27.20 190.78 33.41 194.84 33.41 202.53C33.41 210.22 27.20 214.72 19.51 214.72ZM70.58 235.20L49.44 235.20C48.78 235.20 48.63 234.97 48.63 234.31L48.63 188.34C48.63 187.08 47.60 186.05 46.34 186.05L46.12 186.05C44.86 186.05 43.83 187.08 43.83 188.34L43.83 237.71C43.83 238.97 44.86 240 46.12 240L70.58 240C71.84 240 72.87 238.97 72.87 237.71L72.87 237.49C72.87 236.23 71.84 235.20 70.58 235.20ZM99.70 187.45C99.33 186.49 98.44 186.05 97.48 186.05C96.59 186.05 95.63 186.49 95.26 187.45L74.57 236.75C74.13 237.86 74.64 239.26 75.83 239.70L75.97 239.78C77.16 240.30 78.49 239.70 79.01 238.60C79.01 238.60 84.25 226.11 84.62 225.22C84.99 224.33 85.51 224.04 86.40 224.04C87.13 224.04 103.62 224.04 108.49 224.04C109.38 224.04 109.97 224.33 110.27 225.00C110.56 225.66 115.96 238.60 115.96 238.60C116.48 239.70 117.81 240.30 118.99 239.78L119.14 239.70C120.32 239.26 120.91 237.86 120.39 236.75L99.70 187.45ZM87.50 218.27C87.73 217.75 94.45 200.76 96.74 195.80C97.33 194.55 97.63 194.55 98.15 195.80C100.22 200.76 107.02 217.31 107.38 218.05C107.75 218.94 107.61 219.23 106.57 219.23C105.61 219.23 92.53 219.23 88.39 219.23C87.58 219.23 87.28 218.94 87.50 218.27ZM153.35 186.05L124.38 186.05C123.13 186.05 122.09 187.08 122.09 188.34L122.09 188.49C122.09 189.74 123.13 190.78 124.38 190.78L135.69 190.78C136.36 190.78 136.50 191.00 136.50 191.74L136.50 237.71C136.50 238.97 137.54 240 138.79 240L138.94 240C140.20 240 141.23 238.97 141.23 237.71L141.23 191.59C141.23 191.00 141.46 190.78 142.19 190.78L153.35 190.78C154.61 190.78 155.65 189.74 155.65 188.49L155.65 188.34C155.65 187.08 154.61 186.05 153.35 186.05ZM193.48 186.64L193.34 186.49C192.30 185.75 190.90 186.05 190.16 187.08C190.16 187.08 177.96 205.12 177.23 206.15C175.75 208.22 176.04 208.52 174.34 206.08C173.53 204.89 161.48 187.08 161.48 187.08C160.74 186.05 159.34 185.75 158.31 186.49L158.08 186.64C157.05 187.31 156.83 188.78 157.57 189.82C157.57 189.82 171.24 209.62 172.13 210.88C173.01 212.21 173.46 213.47 173.46 215.17C173.46 216.87 173.46 237.71 173.46 237.71C173.46 238.97 174.49 240 175.75 240L175.90 240C177.15 240 178.19 238.97 178.19 237.71C178.19 237.71 178.19 216.94 178.19 215.24C178.19 213.62 178.70 212.06 179.59 210.73C180.48 209.48 194.08 189.82 194.08 189.82C194.82 188.78 194.52 187.31 193.48 186.64ZM221.35 187.45C220.98 186.49 220.09 186.05 219.13 186.05C218.24 186.05 217.28 186.49 216.91 187.45L196.22 236.75C195.78 237.86 196.29 239.26 197.48 239.70L197.62 239.78C198.81 240.30 200.14 239.70 200.65 238.60C200.65 238.60 205.90 226.11 206.27 225.22C206.64 224.33 207.16 224.04 208.04 224.04C208.78 224.04 225.26 224.04 230.14 224.04C231.03 224.04 231.62 224.33 231.92 225.00C232.21 225.66 237.61 238.60 237.61 238.60C238.12 239.70 239.45 240.30 240.64 239.78L240.78 239.70C241.97 239.26 242.56 237.86 242.04 236.75L221.35 187.45ZM209.15 218.27C209.37 217.75 216.10 200.76 218.39 195.80C218.98 194.55 219.28 194.55 219.80 195.80C221.86 200.76 228.66 217.31 229.03 218.05C229.40 218.94 229.26 219.23 228.22 219.23C227.26 219.23 214.18 219.23 210.04 219.23C209.23 219.23 208.93 218.94 209.15 218.27Z" fill="#ffffff" style="fill: #ffffff"></path></g><g xmlns:name="slogan_text" id="SvgjsG4603" rel="mainfill" name="slogan_text" transform="translate(8.209922194480896,-115.76250305175782)" fill="#ffffff" style="fill: #ffffff"><path d="M4.95 240L4.95 233.87C5.10 233.63 5.34 233.40 5.56 233.26C5.77 233.12 6.03 233.04 6.33 233.04C6.72 233.04 6.94 233.22 7.04 233.40C7.13 233.55 7.21 233.85 7.21 234.80L7.21 235.51L11.16 235.51L11.16 234.54C11.16 233.54 11.20 232.53 10.56 231.70C9.87 230.78 8.61 230.66 7.77 230.66C7.57 230.66 6.80 230.70 6.15 231.03C5.66 231.29 5.22 231.70 4.95 232.16L4.95 230.78L0.89 230.78L0.89 240ZM30.55 235.80L30.55 234.90C30.55 234.07 30.59 232.79 29.72 231.86C28.76 230.83 26.82 230.66 25.41 230.66C23.34 230.66 22.39 230.87 21.52 231.35C20.68 231.80 19.93 232.57 19.93 235.25C19.93 236.79 19.99 238.27 21.03 239.19C22.00 240.04 23.53 240.12 25.46 240.12C26.39 240.12 28.13 240.04 29.11 239.51C29.88 239.09 30.63 238.27 30.55 236.61L27.00 236.61L27.00 236.79C27.00 237.87 26.27 237.99 25.60 237.99C24.50 237.99 24.10 237.77 24.10 236.53L24.10 235.80ZM24.10 234.30L24.10 234.01C24.10 233.63 24.09 233.12 24.44 232.79C24.66 232.57 25.01 232.47 25.33 232.47C25.64 232.47 26.10 232.57 26.31 232.83C26.61 233.14 26.61 233.77 26.61 234.05L26.61 234.30ZM43.97 240L43.97 234.90C43.97 234.60 43.99 233.83 44.43 233.42C44.62 233.22 44.96 233.08 45.29 233.08C45.71 233.08 45.94 233.26 46.06 233.44C46.22 233.69 46.22 234.03 46.22 234.30L46.22 240L50.28 240L50.28 233.59C50.28 232.81 50.22 231.94 49.43 231.31C49.22 231.13 48.51 230.66 46.89 230.66C46.16 230.66 45.51 230.74 44.88 231.11C44.47 231.35 44.17 231.64 43.95 232.00L43.89 232.00L43.89 230.78L39.91 230.78L39.91 240ZM60.88 226.87L60.88 230.78L59.15 230.78L59.15 232.94L60.88 232.94L60.88 237.42C60.88 237.67 60.90 238.68 61.36 239.25C61.89 239.92 62.80 240 63.31 240L66.68 240L66.68 237.87L66.19 237.87C65.83 237.87 65.42 237.83 65.16 237.48C64.96 237.20 64.94 236.75 64.94 236.31L64.94 232.94L66.62 232.94L66.62 230.78L64.94 230.78L64.94 226.87ZM75.74 234.11L79.23 234.11L79.23 233.83C79.23 233.63 79.23 233.24 79.47 232.98C79.71 232.71 80.20 232.65 80.55 232.65C80.81 232.65 81.18 232.69 81.44 232.92C81.70 233.16 81.72 233.44 81.72 233.71L81.72 234.30L79.57 234.70C78.43 234.91 78.17 234.93 77.81 235.01C76.93 235.19 76.51 235.45 76.26 235.64C75.61 236.18 75.55 236.89 75.55 237.50C75.55 238.23 75.67 239.11 76.49 239.66C77.07 240.06 77.85 240.12 78.62 240.12C79.39 240.12 80.24 240.08 80.83 239.66C81.16 239.45 81.46 239.07 81.64 238.72L81.72 238.72L81.72 240L85.58 240L85.58 233.79C85.58 233.04 85.56 231.98 84.34 231.27C83.31 230.68 81.99 230.66 80.81 230.66C78.09 230.66 77.24 230.97 77.08 231.05C76.41 231.35 75.74 232.12 75.74 233.55ZM81.72 236.39C81.72 236.77 81.70 237.34 81.26 237.71C81.16 237.79 80.85 238.07 80.24 238.07C80.02 238.07 79.77 238.05 79.55 237.85C79.37 237.69 79.31 237.48 79.31 237.24C79.31 236.85 79.45 236.61 79.57 236.47C79.78 236.24 80.08 236.14 80.34 236.08C80.67 235.98 80.81 235.96 81.13 235.88L81.72 235.74ZM95.14 226.20L95.14 240L99.20 240L99.20 226.20ZM131.40 232.31C130.71 231.82 130.01 231.47 129.06 231.17C128.15 230.87 127.13 230.66 125.87 230.66C123.56 230.66 122.59 231.17 122.04 231.70C121.49 232.21 121.18 232.90 121.18 233.83C121.18 234.52 121.39 235.09 121.75 235.53C122.54 236.51 123.99 236.73 125.20 236.89C126.50 237.06 126.87 237.06 127.15 237.22C127.34 237.34 127.40 237.50 127.40 237.63C127.40 238.07 126.95 238.15 126.52 238.15C126.22 238.15 125.45 238.11 124.23 237.71C123.05 237.32 122.34 236.96 121.67 236.47L120.74 238.07C123.21 239.86 125.95 240.12 127.48 240.12C129.49 240.12 130.40 239.57 130.71 239.35C131.33 238.94 132.00 238.11 132.00 236.75C132.00 236.02 131.76 235.41 131.33 234.95C130.81 234.40 130.10 234.19 129.43 234.05C129.12 233.99 128.61 233.91 127.54 233.81C126.56 233.73 125.95 233.71 125.59 233.50C125.47 233.44 125.35 233.32 125.35 233.10C125.35 232.88 125.53 232.79 125.67 232.73C125.83 232.67 126.02 232.63 126.44 232.63C127.09 232.63 127.70 232.71 128.25 232.85C129.08 233.04 129.85 233.40 130.40 233.67ZM142.01 226.87L142.01 230.78L140.27 230.78L140.27 232.94L142.01 232.94L142.01 237.42C142.01 237.67 142.03 238.68 142.48 239.25C143.01 239.92 143.92 240 144.43 240L147.80 240L147.80 237.87L147.31 237.87C146.96 237.87 146.54 237.83 146.29 237.48C146.09 237.20 146.07 236.75 146.07 236.31L146.07 232.94L147.74 232.94L147.74 230.78L146.07 230.78L146.07 226.87ZM156.97 230.78L156.97 237.18C156.97 237.97 157.03 238.84 157.82 239.47C158.03 239.65 158.74 240.12 160.36 240.12C161.09 240.12 161.74 240.04 162.37 239.66C162.78 239.43 163.08 239.13 163.30 238.78L163.35 238.78L163.35 240L167.34 240L167.34 230.78L163.28 230.78L163.28 235.88C163.28 236.18 163.26 236.94 162.82 237.36C162.62 237.56 162.29 237.69 161.95 237.69C161.54 237.69 161.30 237.52 161.19 237.34C161.03 237.08 161.03 236.75 161.03 236.47L161.03 230.78ZM183.28 226.20L183.28 231.64C183.02 231.41 182.65 231.11 182.30 230.95C181.66 230.66 180.97 230.66 180.36 230.66C179.52 230.66 178.43 230.76 177.62 231.70C176.80 232.69 176.70 234.17 176.70 235.51C176.70 236.47 176.76 238.40 177.84 239.39C178.61 240.10 179.67 240.12 180.28 240.12C180.80 240.12 181.41 240.08 181.98 239.88C182.57 239.66 182.97 239.33 183.28 238.86L183.28 240L187.34 240L187.34 226.20ZM180.88 234.17C180.88 233.65 181.05 233.40 181.19 233.26C181.33 233.14 181.57 232.98 182.00 232.98C182.45 232.98 182.79 233.18 183.00 233.48C183.24 233.79 183.28 234.15 183.28 234.48L183.28 236.08C183.28 236.83 183.20 237.22 182.97 237.50C182.77 237.73 182.41 237.91 182.02 237.91C181.61 237.91 181.33 237.77 181.17 237.60C180.88 237.30 180.88 236.94 180.88 236.67ZM197.00 226.66L197.00 229.73L201.06 229.73L201.06 226.66ZM197.00 230.78L197.00 240L201.06 240L201.06 230.78ZM210.46 235.39C210.46 236.96 210.46 238.32 211.56 239.19C212.51 239.94 214.05 240.12 215.84 240.12C217.63 240.12 219.17 239.94 220.12 239.19C221.22 238.32 221.22 236.96 221.22 235.39C221.22 233.81 221.22 232.45 220.12 231.58C219.17 230.83 217.63 230.66 215.84 230.66C214.05 230.66 212.51 230.83 211.56 231.58C210.46 232.45 210.46 233.81 210.46 235.39ZM214.64 233.99C214.64 233.67 214.62 233.24 214.95 232.92C215.15 232.75 215.45 232.65 215.84 232.65C216.24 232.65 216.53 232.75 216.73 232.92C217.06 233.24 217.04 233.67 217.04 233.99L217.04 236.79C217.04 237.10 217.06 237.54 216.73 237.85C216.53 238.03 216.24 238.13 215.84 238.13C215.45 238.13 215.15 238.03 214.95 237.85C214.62 237.54 214.64 237.10 214.64 236.79Z" fill="#ffffff" style="fill: #ffffff"></path></g><g xmlns:name="symbol_mainfill" id="SvgjsG4604" rel="mainfill" name="symbol" transform="translate(78.82492294311524,-24.03249969482422) scale(0.8)" fill="#ffffff" style="fill: #ffffff"><path d="M15.8,69c3.1,0,8.1-0.6,13.4-3.3h8.7v1.7h-1c-0.6,0-1,0.4-1,1s0.4,1,1,1h3.8c0.6,0,1-0.4,1-1s-0.4-1-1-1  h-0.8v-1.7h19.9v1.7h-1c-0.6,0-1,0.4-1,1s0.4,1,1,1h3.8c0.6,0,1-0.4,1-1s-0.4-1-1-1h-0.8v-1.7h10.1c5.3,2.7,10.3,3.3,13.4,3.3  c1.4,0,2.5-1.1,2.5-2.5S86.7,64,85.4,64c-4.3,0-12.6-1.3-19.9-9.8C58,45.5,53.6,45,51.3,45v-2.9c2.1,0,3.8-1.8,3.8-3.9v-3.6  c0-1.5-0.8-3-2.1-3.8c-1.3-0.9-3-1-4.5-0.3c-1.4,0.6-2.3,2-2.3,3.6V35c0,0.6,0.4,1,1,1s1-0.4,1-1v-0.8c0-0.8,0.4-1.5,1.1-1.8  c0.9-0.4,1.8-0.3,2.6,0.2c0.7,0.5,1.2,1.3,1.2,2.2v3.6c0,1-0.8,1.9-1.9,1.9c-1.1,0-1.9,0.9-1.9,1.9v3c-2.4,0.1-6.7,1.2-13.6,9.2  C28.4,62.7,20.1,64,15.8,64c-1.4,0-2.5,1.1-2.5,2.5S14.4,69,15.8,69z M39.5,57.5C46,49.9,49,50,50.3,50l0.3,0l0.3,0  c1.3,0,4.3-0.1,10.8,7.5c2.2,2.6,4.6,4.6,6.9,6.2h-6.8v-1.1c0-0.6-0.4-1-1-1s-1,0.4-1,1v1.1H39.9v-1.1c0-0.6-0.4-1-1-1s-1,0.4-1,1  v1.1h-5.3C34.9,62.1,37.2,60.1,39.5,57.5z" fill="#ffffff" style="fill: #ffffff"></path></g> </g></svg>
